<mxfile host="app.diagrams.net" modified="2023-04-21T15:06:07.551Z" agent="Mozilla/5.0 (Windows NT 10.0; Win64; x64) AppleWebKit/537.36 (KHTML, like Gecko) Chrome/112.0.0.0 Safari/537.36" etag="fnkjjeF4rrY97iruSTx3" version="21.2.1" type="device">
  <diagram name="Page-1" id="03018318-947c-dd8e-b7a3-06fadd420f32">
    <mxGraphModel dx="1034" dy="430" grid="1" gridSize="10" guides="1" tooltips="1" connect="1" arrows="1" fold="1" page="1" pageScale="1" pageWidth="1100" pageHeight="850" background="none" math="0" shadow="0">
      <root>
        <mxCell id="0" />
        <mxCell id="1" parent="0" />
        <mxCell id="677b7b8949515195-1" value="" style="whiteSpace=wrap;html=1;rounded=0;shadow=0;labelBackgroundColor=none;strokeColor=#000000;strokeWidth=1;fillColor=none;fontFamily=Verdana;fontSize=12;fontColor=#000000;align=center;comic=1;" parent="1" vertex="1">
          <mxGeometry x="20" y="20" width="1060" height="730" as="geometry" />
        </mxCell>
        <mxCell id="677b7b8949515195-8" value="" style="whiteSpace=wrap;html=1;rounded=0;shadow=0;labelBackgroundColor=none;strokeWidth=1;fillColor=none;fontFamily=Verdana;fontSize=12;align=center;comic=1;" parent="1" vertex="1">
          <mxGeometry x="30" y="30" width="140" height="700" as="geometry" />
        </mxCell>
        <mxCell id="677b7b8949515195-15" value="Reviews/testimonials" style="whiteSpace=wrap;html=1;rounded=0;shadow=0;labelBackgroundColor=none;strokeWidth=1;fillColor=none;fontFamily=Verdana;fontSize=12;align=center;verticalAlign=top;spacing=10;comic=1;" parent="1" vertex="1">
          <mxGeometry x="180" y="447" width="390" height="180" as="geometry" />
        </mxCell>
        <mxCell id="677b7b8949515195-26" value="&lt;div&gt;Opening Hours&lt;/div&gt;&lt;div&gt;Phone Number&lt;/div&gt;&lt;div&gt;Map&lt;br&gt;&lt;/div&gt;" style="whiteSpace=wrap;html=1;rounded=0;shadow=0;labelBackgroundColor=none;strokeWidth=1;fillColor=none;fontFamily=Verdana;fontSize=12;align=center;comic=1;" parent="1" vertex="1">
          <mxGeometry x="820" y="447" width="230" height="180" as="geometry" />
        </mxCell>
        <mxCell id="qz_svecnsdqs3by7-r_0-2" value="Vet Clinic Name" style="whiteSpace=wrap;html=1;rounded=0;shadow=0;labelBackgroundColor=none;strokeWidth=1;fontFamily=Verdana;fontSize=28;align=center;comic=1;" parent="1" vertex="1">
          <mxGeometry x="190" y="40" width="680" height="100" as="geometry" />
        </mxCell>
        <mxCell id="qz_svecnsdqs3by7-r_0-7" value="Picture of us as vets" style="whiteSpace=wrap;html=1;rounded=0;shadow=0;labelBackgroundColor=none;strokeWidth=1;fillColor=none;fontFamily=Verdana;fontSize=12;align=center;comic=1;" parent="1" vertex="1">
          <mxGeometry x="580" y="447" width="230" height="180" as="geometry" />
        </mxCell>
        <mxCell id="qz_svecnsdqs3by7-r_0-8" value="" style="whiteSpace=wrap;html=1;rounded=0;shadow=0;labelBackgroundColor=none;strokeWidth=1;fontFamily=Verdana;fontSize=28;align=center;comic=1;" parent="1" vertex="1">
          <mxGeometry x="180" y="640" width="870" height="60" as="geometry" />
        </mxCell>
        <mxCell id="qz_svecnsdqs3by7-r_0-9" value="" style="verticalLabelPosition=bottom;shadow=0;dashed=0;align=center;html=1;verticalAlign=top;strokeWidth=1;shape=mxgraph.mockup.misc.help_icon;" parent="1" vertex="1">
          <mxGeometry x="730" y="654" width="32" height="32" as="geometry" />
        </mxCell>
        <mxCell id="qz_svecnsdqs3by7-r_0-10" value="" style="verticalLabelPosition=bottom;shadow=0;dashed=0;align=center;html=1;verticalAlign=top;strokeWidth=1;shape=mxgraph.mockup.misc.help_icon;" parent="1" vertex="1">
          <mxGeometry x="679" y="654" width="32" height="32" as="geometry" />
        </mxCell>
        <mxCell id="qz_svecnsdqs3by7-r_0-11" value="" style="verticalLabelPosition=bottom;shadow=0;dashed=0;align=center;html=1;verticalAlign=top;strokeWidth=1;shape=mxgraph.mockup.misc.help_icon;" parent="1" vertex="1">
          <mxGeometry x="778" y="654" width="32" height="32" as="geometry" />
        </mxCell>
        <mxCell id="qz_svecnsdqs3by7-r_0-12" value="Cookie Policy" style="text;html=1;points=[];align=left;verticalAlign=top;spacingTop=-4;fontSize=14;fontFamily=Verdana" parent="1" vertex="1">
          <mxGeometry x="190" y="649" width="100" height="20" as="geometry" />
        </mxCell>
        <mxCell id="qz_svecnsdqs3by7-r_0-13" value="Vet Accreditation, Company Registration, Copyright, Registered Address" style="text;html=1;points=[];align=left;verticalAlign=top;spacingTop=-4;fontSize=14;fontFamily=Verdana;fillColor=#f5f5f5;fontColor=#333333;strokeColor=none;" parent="1" vertex="1">
          <mxGeometry x="180" y="710" width="860" height="20" as="geometry" />
        </mxCell>
        <mxCell id="qz_svecnsdqs3by7-r_0-14" value="Privacy Policy" style="text;html=1;points=[];align=left;verticalAlign=top;spacingTop=-4;fontSize=14;fontFamily=Verdana" parent="1" vertex="1">
          <mxGeometry x="190" y="669" width="100" height="20" as="geometry" />
        </mxCell>
        <mxCell id="qz_svecnsdqs3by7-r_0-15" value="Terms of Use" style="text;html=1;points=[];align=left;verticalAlign=top;spacingTop=-4;fontSize=14;fontFamily=Verdana" parent="1" vertex="1">
          <mxGeometry x="370" y="649" width="100" height="20" as="geometry" />
        </mxCell>
        <mxCell id="qz_svecnsdqs3by7-r_0-16" value="Complaints Policy" style="text;html=1;points=[];align=left;verticalAlign=top;spacingTop=-4;fontSize=14;fontFamily=Verdana" parent="1" vertex="1">
          <mxGeometry x="370" y="669" width="100" height="20" as="geometry" />
        </mxCell>
        <mxCell id="qz_svecnsdqs3by7-r_0-17" value="&lt;div align=&quot;center&quot;&gt;&lt;font style=&quot;font-size: 14px;&quot;&gt;Logout&lt;/font&gt;&lt;/div&gt;" style="whiteSpace=wrap;html=1;rounded=0;shadow=0;labelBackgroundColor=none;strokeWidth=1;fontFamily=Verdana;fontSize=28;align=center;comic=1;" parent="1" vertex="1">
          <mxGeometry x="900" y="40" width="120" height="80" as="geometry" />
        </mxCell>
        <mxCell id="qz_svecnsdqs3by7-r_0-19" value="Home" style="text;html=1;points=[];align=left;verticalAlign=top;spacingTop=-4;fontSize=14;fontFamily=Verdana" parent="1" vertex="1">
          <mxGeometry x="40" y="160" width="110" height="20" as="geometry" />
        </mxCell>
        <mxCell id="qz_svecnsdqs3by7-r_0-20" value="About Us" style="text;html=1;points=[];align=left;verticalAlign=top;spacingTop=-4;fontSize=14;fontFamily=Verdana" parent="1" vertex="1">
          <mxGeometry x="40" y="190" width="110" height="20" as="geometry" />
        </mxCell>
        <mxCell id="qz_svecnsdqs3by7-r_0-21" value="Products" style="text;html=1;points=[];align=left;verticalAlign=top;spacingTop=-4;fontSize=14;fontFamily=Verdana" parent="1" vertex="1">
          <mxGeometry x="40" y="220" width="110" height="20" as="geometry" />
        </mxCell>
        <mxCell id="qz_svecnsdqs3by7-r_0-22" value="Account" style="text;html=1;points=[];align=left;verticalAlign=top;spacingTop=-4;fontSize=14;fontFamily=Verdana" parent="1" vertex="1">
          <mxGeometry x="40" y="250" width="110" height="20" as="geometry" />
        </mxCell>
        <mxCell id="qz_svecnsdqs3by7-r_0-23" value="Pet Advice" style="text;html=1;points=[];align=left;verticalAlign=top;spacingTop=-4;fontSize=14;fontFamily=Verdana" parent="1" vertex="1">
          <mxGeometry x="40" y="280" width="110" height="20" as="geometry" />
        </mxCell>
        <mxCell id="qz_svecnsdqs3by7-r_0-25" value="Admin" style="text;html=1;points=[];align=left;verticalAlign=top;spacingTop=-4;fontSize=14;fontFamily=Verdana" parent="1" vertex="1">
          <mxGeometry x="40" y="690" width="110" height="20" as="geometry" />
        </mxCell>
        <mxCell id="YpGhRkBLHknayNMrXKQS-291" value="" style="shape=table;childLayout=tableLayout;startSize=0;fillColor=none;collapsible=0;recursiveResize=0;expand=0;" parent="1" vertex="1">
          <mxGeometry x="180" y="190" width="640" height="251" as="geometry" />
        </mxCell>
        <mxCell id="YpGhRkBLHknayNMrXKQS-292" value="" style="shape=tableRow;horizontal=0;swimlaneHead=0;swimlaneBody=0;top=0;left=0;strokeColor=inherit;bottom=0;right=0;dropTarget=0;fontStyle=0;fillColor=none;points=[[0,0.5],[1,0.5]];portConstraint=eastwest;startSize=40;collapsible=0;recursiveResize=0;expand=0;" parent="YpGhRkBLHknayNMrXKQS-291" vertex="1">
          <mxGeometry width="640" height="20" as="geometry" />
        </mxCell>
        <mxCell id="YpGhRkBLHknayNMrXKQS-293" value="Cus_id" style="swimlane;swimlaneHead=0;swimlaneBody=0;fontStyle=0;strokeColor=inherit;connectable=0;fillColor=none;startSize=40;collapsible=0;recursiveResize=0;expand=0;" parent="YpGhRkBLHknayNMrXKQS-292" vertex="1">
          <mxGeometry x="40" width="67" height="20" as="geometry">
            <mxRectangle width="67" height="20" as="alternateBounds" />
          </mxGeometry>
        </mxCell>
        <mxCell id="YpGhRkBLHknayNMrXKQS-294" value="Last Name" style="swimlane;swimlaneHead=0;swimlaneBody=0;fontStyle=0;strokeColor=inherit;connectable=0;fillColor=none;startSize=40;collapsible=0;recursiveResize=0;expand=0;" parent="YpGhRkBLHknayNMrXKQS-292" vertex="1">
          <mxGeometry x="107" width="66" height="20" as="geometry">
            <mxRectangle width="66" height="20" as="alternateBounds" />
          </mxGeometry>
        </mxCell>
        <mxCell id="YpGhRkBLHknayNMrXKQS-295" value="First Name" style="swimlane;swimlaneHead=0;swimlaneBody=0;fontStyle=0;strokeColor=inherit;connectable=0;fillColor=none;startSize=40;collapsible=0;recursiveResize=0;expand=0;" parent="YpGhRkBLHknayNMrXKQS-292" vertex="1">
          <mxGeometry x="173" width="67" height="20" as="geometry">
            <mxRectangle width="67" height="20" as="alternateBounds" />
          </mxGeometry>
        </mxCell>
        <mxCell id="YpGhRkBLHknayNMrXKQS-296" value="Email" style="swimlane;swimlaneHead=0;swimlaneBody=0;fontStyle=0;strokeColor=inherit;connectable=0;fillColor=none;startSize=40;collapsible=0;recursiveResize=0;expand=0;" parent="YpGhRkBLHknayNMrXKQS-292" vertex="1">
          <mxGeometry x="240" width="67" height="20" as="geometry">
            <mxRectangle width="67" height="20" as="alternateBounds" />
          </mxGeometry>
        </mxCell>
        <mxCell id="YpGhRkBLHknayNMrXKQS-297" value="Phone" style="swimlane;swimlaneHead=0;swimlaneBody=0;fontStyle=0;strokeColor=inherit;connectable=0;fillColor=none;startSize=40;collapsible=0;recursiveResize=0;expand=0;" parent="YpGhRkBLHknayNMrXKQS-292" vertex="1">
          <mxGeometry x="307" width="66" height="20" as="geometry">
            <mxRectangle width="66" height="20" as="alternateBounds" />
          </mxGeometry>
        </mxCell>
        <mxCell id="YpGhRkBLHknayNMrXKQS-298" value="Address" style="swimlane;swimlaneHead=0;swimlaneBody=0;fontStyle=0;strokeColor=inherit;connectable=0;fillColor=none;startSize=40;collapsible=0;recursiveResize=0;expand=0;" parent="YpGhRkBLHknayNMrXKQS-292" vertex="1">
          <mxGeometry x="373" width="67" height="20" as="geometry">
            <mxRectangle width="67" height="20" as="alternateBounds" />
          </mxGeometry>
        </mxCell>
        <mxCell id="YpGhRkBLHknayNMrXKQS-299" value="Status" style="swimlane;swimlaneHead=0;swimlaneBody=0;fontStyle=0;strokeColor=inherit;connectable=0;fillColor=none;startSize=40;collapsible=0;recursiveResize=0;expand=0;" parent="YpGhRkBLHknayNMrXKQS-292" vertex="1">
          <mxGeometry x="440" width="67" height="20" as="geometry">
            <mxRectangle width="67" height="20" as="alternateBounds" />
          </mxGeometry>
        </mxCell>
        <mxCell id="YpGhRkBLHknayNMrXKQS-300" value="Pets" style="swimlane;swimlaneHead=0;swimlaneBody=0;fontStyle=0;strokeColor=inherit;connectable=0;fillColor=none;startSize=40;collapsible=0;recursiveResize=0;expand=0;" parent="YpGhRkBLHknayNMrXKQS-292" vertex="1">
          <mxGeometry x="507" width="66" height="20" as="geometry">
            <mxRectangle width="66" height="20" as="alternateBounds" />
          </mxGeometry>
        </mxCell>
        <mxCell id="YpGhRkBLHknayNMrXKQS-301" value="Update" style="swimlane;swimlaneHead=0;swimlaneBody=0;fontStyle=0;strokeColor=inherit;connectable=0;fillColor=none;startSize=40;collapsible=0;recursiveResize=0;expand=0;" parent="YpGhRkBLHknayNMrXKQS-292" vertex="1">
          <mxGeometry x="573" width="67" height="20" as="geometry">
            <mxRectangle width="67" height="20" as="alternateBounds" />
          </mxGeometry>
        </mxCell>
        <mxCell id="YpGhRkBLHknayNMrXKQS-302" value="" style="shape=tableRow;horizontal=0;swimlaneHead=0;swimlaneBody=0;top=0;left=0;strokeColor=inherit;bottom=0;right=0;dropTarget=0;fontStyle=0;fillColor=none;points=[[0,0.5],[1,0.5]];portConstraint=eastwest;startSize=40;collapsible=0;recursiveResize=0;expand=0;" parent="YpGhRkBLHknayNMrXKQS-291" vertex="1">
          <mxGeometry y="20" width="640" height="19" as="geometry" />
        </mxCell>
        <mxCell id="YpGhRkBLHknayNMrXKQS-303" value="" style="swimlane;swimlaneHead=0;swimlaneBody=0;fontStyle=0;connectable=0;strokeColor=inherit;fillColor=none;startSize=0;collapsible=0;recursiveResize=0;expand=0;" parent="YpGhRkBLHknayNMrXKQS-302" vertex="1">
          <mxGeometry x="40" width="67" height="19" as="geometry">
            <mxRectangle width="67" height="19" as="alternateBounds" />
          </mxGeometry>
        </mxCell>
        <mxCell id="YpGhRkBLHknayNMrXKQS-304" value="" style="swimlane;swimlaneHead=0;swimlaneBody=0;fontStyle=0;connectable=0;strokeColor=inherit;fillColor=none;startSize=0;collapsible=0;recursiveResize=0;expand=0;" parent="YpGhRkBLHknayNMrXKQS-302" vertex="1">
          <mxGeometry x="107" width="66" height="19" as="geometry">
            <mxRectangle width="66" height="19" as="alternateBounds" />
          </mxGeometry>
        </mxCell>
        <mxCell id="YpGhRkBLHknayNMrXKQS-305" value="" style="swimlane;swimlaneHead=0;swimlaneBody=0;fontStyle=0;connectable=0;strokeColor=inherit;fillColor=none;startSize=0;collapsible=0;recursiveResize=0;expand=0;" parent="YpGhRkBLHknayNMrXKQS-302" vertex="1">
          <mxGeometry x="173" width="67" height="19" as="geometry">
            <mxRectangle width="67" height="19" as="alternateBounds" />
          </mxGeometry>
        </mxCell>
        <mxCell id="YpGhRkBLHknayNMrXKQS-306" value="" style="swimlane;swimlaneHead=0;swimlaneBody=0;fontStyle=0;connectable=0;strokeColor=inherit;fillColor=none;startSize=0;collapsible=0;recursiveResize=0;expand=0;" parent="YpGhRkBLHknayNMrXKQS-302" vertex="1">
          <mxGeometry x="240" width="67" height="19" as="geometry">
            <mxRectangle width="67" height="19" as="alternateBounds" />
          </mxGeometry>
        </mxCell>
        <mxCell id="YpGhRkBLHknayNMrXKQS-307" value="" style="swimlane;swimlaneHead=0;swimlaneBody=0;fontStyle=0;connectable=0;strokeColor=inherit;fillColor=none;startSize=0;collapsible=0;recursiveResize=0;expand=0;" parent="YpGhRkBLHknayNMrXKQS-302" vertex="1">
          <mxGeometry x="307" width="66" height="19" as="geometry">
            <mxRectangle width="66" height="19" as="alternateBounds" />
          </mxGeometry>
        </mxCell>
        <mxCell id="YpGhRkBLHknayNMrXKQS-308" value="" style="swimlane;swimlaneHead=0;swimlaneBody=0;fontStyle=0;connectable=0;strokeColor=inherit;fillColor=none;startSize=0;collapsible=0;recursiveResize=0;expand=0;" parent="YpGhRkBLHknayNMrXKQS-302" vertex="1">
          <mxGeometry x="373" width="67" height="19" as="geometry">
            <mxRectangle width="67" height="19" as="alternateBounds" />
          </mxGeometry>
        </mxCell>
        <mxCell id="YpGhRkBLHknayNMrXKQS-309" value="" style="swimlane;swimlaneHead=0;swimlaneBody=0;fontStyle=0;connectable=0;strokeColor=inherit;fillColor=none;startSize=0;collapsible=0;recursiveResize=0;expand=0;" parent="YpGhRkBLHknayNMrXKQS-302" vertex="1">
          <mxGeometry x="440" width="67" height="19" as="geometry">
            <mxRectangle width="67" height="19" as="alternateBounds" />
          </mxGeometry>
        </mxCell>
        <mxCell id="YpGhRkBLHknayNMrXKQS-310" value="" style="swimlane;swimlaneHead=0;swimlaneBody=0;fontStyle=0;connectable=0;strokeColor=inherit;fillColor=none;startSize=0;collapsible=0;recursiveResize=0;expand=0;" parent="YpGhRkBLHknayNMrXKQS-302" vertex="1">
          <mxGeometry x="507" width="66" height="19" as="geometry">
            <mxRectangle width="66" height="19" as="alternateBounds" />
          </mxGeometry>
        </mxCell>
        <mxCell id="YpGhRkBLHknayNMrXKQS-311" value="" style="swimlane;swimlaneHead=0;swimlaneBody=0;fontStyle=0;connectable=0;strokeColor=inherit;fillColor=none;startSize=0;collapsible=0;recursiveResize=0;expand=0;" parent="YpGhRkBLHknayNMrXKQS-302" vertex="1">
          <mxGeometry x="573" width="67" height="19" as="geometry">
            <mxRectangle width="67" height="19" as="alternateBounds" />
          </mxGeometry>
        </mxCell>
        <mxCell id="YpGhRkBLHknayNMrXKQS-312" value="" style="shape=tableRow;horizontal=0;swimlaneHead=0;swimlaneBody=0;top=0;left=0;strokeColor=inherit;bottom=0;right=0;dropTarget=0;fontStyle=0;fillColor=none;points=[[0,0.5],[1,0.5]];portConstraint=eastwest;startSize=40;collapsible=0;recursiveResize=0;expand=0;" parent="YpGhRkBLHknayNMrXKQS-291" vertex="1">
          <mxGeometry y="39" width="640" height="20" as="geometry" />
        </mxCell>
        <mxCell id="YpGhRkBLHknayNMrXKQS-313" value="" style="swimlane;swimlaneHead=0;swimlaneBody=0;fontStyle=0;connectable=0;strokeColor=inherit;fillColor=none;startSize=0;collapsible=0;recursiveResize=0;expand=0;" parent="YpGhRkBLHknayNMrXKQS-312" vertex="1">
          <mxGeometry x="40" width="67" height="20" as="geometry">
            <mxRectangle width="67" height="20" as="alternateBounds" />
          </mxGeometry>
        </mxCell>
        <mxCell id="YpGhRkBLHknayNMrXKQS-314" value="" style="swimlane;swimlaneHead=0;swimlaneBody=0;fontStyle=0;connectable=0;strokeColor=inherit;fillColor=none;startSize=0;collapsible=0;recursiveResize=0;expand=0;" parent="YpGhRkBLHknayNMrXKQS-312" vertex="1">
          <mxGeometry x="107" width="66" height="20" as="geometry">
            <mxRectangle width="66" height="20" as="alternateBounds" />
          </mxGeometry>
        </mxCell>
        <mxCell id="YpGhRkBLHknayNMrXKQS-315" value="" style="swimlane;swimlaneHead=0;swimlaneBody=0;fontStyle=0;connectable=0;strokeColor=inherit;fillColor=none;startSize=0;collapsible=0;recursiveResize=0;expand=0;" parent="YpGhRkBLHknayNMrXKQS-312" vertex="1">
          <mxGeometry x="173" width="67" height="20" as="geometry">
            <mxRectangle width="67" height="20" as="alternateBounds" />
          </mxGeometry>
        </mxCell>
        <mxCell id="YpGhRkBLHknayNMrXKQS-316" value="" style="swimlane;swimlaneHead=0;swimlaneBody=0;fontStyle=0;connectable=0;strokeColor=inherit;fillColor=none;startSize=0;collapsible=0;recursiveResize=0;expand=0;" parent="YpGhRkBLHknayNMrXKQS-312" vertex="1">
          <mxGeometry x="240" width="67" height="20" as="geometry">
            <mxRectangle width="67" height="20" as="alternateBounds" />
          </mxGeometry>
        </mxCell>
        <mxCell id="YpGhRkBLHknayNMrXKQS-317" value="" style="swimlane;swimlaneHead=0;swimlaneBody=0;fontStyle=0;connectable=0;strokeColor=inherit;fillColor=none;startSize=0;collapsible=0;recursiveResize=0;expand=0;" parent="YpGhRkBLHknayNMrXKQS-312" vertex="1">
          <mxGeometry x="307" width="66" height="20" as="geometry">
            <mxRectangle width="66" height="20" as="alternateBounds" />
          </mxGeometry>
        </mxCell>
        <mxCell id="YpGhRkBLHknayNMrXKQS-318" value="" style="swimlane;swimlaneHead=0;swimlaneBody=0;fontStyle=0;connectable=0;strokeColor=inherit;fillColor=none;startSize=0;collapsible=0;recursiveResize=0;expand=0;" parent="YpGhRkBLHknayNMrXKQS-312" vertex="1">
          <mxGeometry x="373" width="67" height="20" as="geometry">
            <mxRectangle width="67" height="20" as="alternateBounds" />
          </mxGeometry>
        </mxCell>
        <mxCell id="YpGhRkBLHknayNMrXKQS-319" value="" style="swimlane;swimlaneHead=0;swimlaneBody=0;fontStyle=0;connectable=0;strokeColor=inherit;fillColor=none;startSize=0;collapsible=0;recursiveResize=0;expand=0;" parent="YpGhRkBLHknayNMrXKQS-312" vertex="1">
          <mxGeometry x="440" width="67" height="20" as="geometry">
            <mxRectangle width="67" height="20" as="alternateBounds" />
          </mxGeometry>
        </mxCell>
        <mxCell id="YpGhRkBLHknayNMrXKQS-320" value="" style="swimlane;swimlaneHead=0;swimlaneBody=0;fontStyle=0;connectable=0;strokeColor=inherit;fillColor=none;startSize=0;collapsible=0;recursiveResize=0;expand=0;" parent="YpGhRkBLHknayNMrXKQS-312" vertex="1">
          <mxGeometry x="507" width="66" height="20" as="geometry">
            <mxRectangle width="66" height="20" as="alternateBounds" />
          </mxGeometry>
        </mxCell>
        <mxCell id="YpGhRkBLHknayNMrXKQS-422" value="Click on pets to go to pet page" style="shape=callout;whiteSpace=wrap;html=1;perimeter=calloutPerimeter;" parent="YpGhRkBLHknayNMrXKQS-320" vertex="1">
          <mxGeometry x="-27" y="8.5" width="120" height="80" as="geometry" />
        </mxCell>
        <mxCell id="YpGhRkBLHknayNMrXKQS-321" value="" style="swimlane;swimlaneHead=0;swimlaneBody=0;fontStyle=0;connectable=0;strokeColor=inherit;fillColor=none;startSize=0;collapsible=0;recursiveResize=0;expand=0;" parent="YpGhRkBLHknayNMrXKQS-312" vertex="1">
          <mxGeometry x="573" width="67" height="20" as="geometry">
            <mxRectangle width="67" height="20" as="alternateBounds" />
          </mxGeometry>
        </mxCell>
        <mxCell id="YpGhRkBLHknayNMrXKQS-322" value="" style="shape=tableRow;horizontal=0;swimlaneHead=0;swimlaneBody=0;top=0;left=0;strokeColor=inherit;bottom=0;right=0;dropTarget=0;fontStyle=0;fillColor=none;points=[[0,0.5],[1,0.5]];portConstraint=eastwest;startSize=40;collapsible=0;recursiveResize=0;expand=0;" parent="YpGhRkBLHknayNMrXKQS-291" vertex="1">
          <mxGeometry y="59" width="640" height="19" as="geometry" />
        </mxCell>
        <mxCell id="YpGhRkBLHknayNMrXKQS-323" value="" style="swimlane;swimlaneHead=0;swimlaneBody=0;fontStyle=0;connectable=0;strokeColor=inherit;fillColor=none;startSize=0;collapsible=0;recursiveResize=0;expand=0;" parent="YpGhRkBLHknayNMrXKQS-322" vertex="1">
          <mxGeometry x="40" width="67" height="19" as="geometry">
            <mxRectangle width="67" height="19" as="alternateBounds" />
          </mxGeometry>
        </mxCell>
        <mxCell id="YpGhRkBLHknayNMrXKQS-324" value="" style="swimlane;swimlaneHead=0;swimlaneBody=0;fontStyle=0;connectable=0;strokeColor=inherit;fillColor=none;startSize=0;collapsible=0;recursiveResize=0;expand=0;" parent="YpGhRkBLHknayNMrXKQS-322" vertex="1">
          <mxGeometry x="107" width="66" height="19" as="geometry">
            <mxRectangle width="66" height="19" as="alternateBounds" />
          </mxGeometry>
        </mxCell>
        <mxCell id="YpGhRkBLHknayNMrXKQS-325" value="" style="swimlane;swimlaneHead=0;swimlaneBody=0;fontStyle=0;connectable=0;strokeColor=inherit;fillColor=none;startSize=0;collapsible=0;recursiveResize=0;expand=0;" parent="YpGhRkBLHknayNMrXKQS-322" vertex="1">
          <mxGeometry x="173" width="67" height="19" as="geometry">
            <mxRectangle width="67" height="19" as="alternateBounds" />
          </mxGeometry>
        </mxCell>
        <mxCell id="YpGhRkBLHknayNMrXKQS-326" value="" style="swimlane;swimlaneHead=0;swimlaneBody=0;fontStyle=0;connectable=0;strokeColor=inherit;fillColor=none;startSize=0;collapsible=0;recursiveResize=0;expand=0;" parent="YpGhRkBLHknayNMrXKQS-322" vertex="1">
          <mxGeometry x="240" width="67" height="19" as="geometry">
            <mxRectangle width="67" height="19" as="alternateBounds" />
          </mxGeometry>
        </mxCell>
        <mxCell id="YpGhRkBLHknayNMrXKQS-327" value="" style="swimlane;swimlaneHead=0;swimlaneBody=0;fontStyle=0;connectable=0;strokeColor=inherit;fillColor=none;startSize=0;collapsible=0;recursiveResize=0;expand=0;" parent="YpGhRkBLHknayNMrXKQS-322" vertex="1">
          <mxGeometry x="307" width="66" height="19" as="geometry">
            <mxRectangle width="66" height="19" as="alternateBounds" />
          </mxGeometry>
        </mxCell>
        <mxCell id="YpGhRkBLHknayNMrXKQS-328" value="" style="swimlane;swimlaneHead=0;swimlaneBody=0;fontStyle=0;connectable=0;strokeColor=inherit;fillColor=none;startSize=0;collapsible=0;recursiveResize=0;expand=0;" parent="YpGhRkBLHknayNMrXKQS-322" vertex="1">
          <mxGeometry x="373" width="67" height="19" as="geometry">
            <mxRectangle width="67" height="19" as="alternateBounds" />
          </mxGeometry>
        </mxCell>
        <mxCell id="YpGhRkBLHknayNMrXKQS-329" value="" style="swimlane;swimlaneHead=0;swimlaneBody=0;fontStyle=0;connectable=0;strokeColor=inherit;fillColor=none;startSize=0;collapsible=0;recursiveResize=0;expand=0;" parent="YpGhRkBLHknayNMrXKQS-322" vertex="1">
          <mxGeometry x="440" width="67" height="19" as="geometry">
            <mxRectangle width="67" height="19" as="alternateBounds" />
          </mxGeometry>
        </mxCell>
        <mxCell id="YpGhRkBLHknayNMrXKQS-330" value="" style="swimlane;swimlaneHead=0;swimlaneBody=0;fontStyle=0;connectable=0;strokeColor=inherit;fillColor=none;startSize=0;collapsible=0;recursiveResize=0;expand=0;" parent="YpGhRkBLHknayNMrXKQS-322" vertex="1">
          <mxGeometry x="507" width="66" height="19" as="geometry">
            <mxRectangle width="66" height="19" as="alternateBounds" />
          </mxGeometry>
        </mxCell>
        <mxCell id="YpGhRkBLHknayNMrXKQS-331" value="" style="swimlane;swimlaneHead=0;swimlaneBody=0;fontStyle=0;connectable=0;strokeColor=inherit;fillColor=none;startSize=0;collapsible=0;recursiveResize=0;expand=0;" parent="YpGhRkBLHknayNMrXKQS-322" vertex="1">
          <mxGeometry x="573" width="67" height="19" as="geometry">
            <mxRectangle width="67" height="19" as="alternateBounds" />
          </mxGeometry>
        </mxCell>
        <mxCell id="YpGhRkBLHknayNMrXKQS-332" value="" style="shape=tableRow;horizontal=0;swimlaneHead=0;swimlaneBody=0;top=0;left=0;strokeColor=inherit;bottom=0;right=0;dropTarget=0;fontStyle=0;fillColor=none;points=[[0,0.5],[1,0.5]];portConstraint=eastwest;startSize=40;collapsible=0;recursiveResize=0;expand=0;" parent="YpGhRkBLHknayNMrXKQS-291" vertex="1">
          <mxGeometry y="78" width="640" height="19" as="geometry" />
        </mxCell>
        <mxCell id="YpGhRkBLHknayNMrXKQS-333" value="" style="swimlane;swimlaneHead=0;swimlaneBody=0;fontStyle=0;connectable=0;strokeColor=inherit;fillColor=none;startSize=0;collapsible=0;recursiveResize=0;expand=0;" parent="YpGhRkBLHknayNMrXKQS-332" vertex="1">
          <mxGeometry x="40" width="67" height="19" as="geometry">
            <mxRectangle width="67" height="19" as="alternateBounds" />
          </mxGeometry>
        </mxCell>
        <mxCell id="YpGhRkBLHknayNMrXKQS-334" value="" style="swimlane;swimlaneHead=0;swimlaneBody=0;fontStyle=0;connectable=0;strokeColor=inherit;fillColor=none;startSize=0;collapsible=0;recursiveResize=0;expand=0;" parent="YpGhRkBLHknayNMrXKQS-332" vertex="1">
          <mxGeometry x="107" width="66" height="19" as="geometry">
            <mxRectangle width="66" height="19" as="alternateBounds" />
          </mxGeometry>
        </mxCell>
        <mxCell id="YpGhRkBLHknayNMrXKQS-335" value="" style="swimlane;swimlaneHead=0;swimlaneBody=0;fontStyle=0;connectable=0;strokeColor=inherit;fillColor=none;startSize=0;collapsible=0;recursiveResize=0;expand=0;" parent="YpGhRkBLHknayNMrXKQS-332" vertex="1">
          <mxGeometry x="173" width="67" height="19" as="geometry">
            <mxRectangle width="67" height="19" as="alternateBounds" />
          </mxGeometry>
        </mxCell>
        <mxCell id="YpGhRkBLHknayNMrXKQS-336" value="" style="swimlane;swimlaneHead=0;swimlaneBody=0;fontStyle=0;connectable=0;strokeColor=inherit;fillColor=none;startSize=0;collapsible=0;recursiveResize=0;expand=0;" parent="YpGhRkBLHknayNMrXKQS-332" vertex="1">
          <mxGeometry x="240" width="67" height="19" as="geometry">
            <mxRectangle width="67" height="19" as="alternateBounds" />
          </mxGeometry>
        </mxCell>
        <mxCell id="YpGhRkBLHknayNMrXKQS-337" value="" style="swimlane;swimlaneHead=0;swimlaneBody=0;fontStyle=0;connectable=0;strokeColor=inherit;fillColor=none;startSize=0;collapsible=0;recursiveResize=0;expand=0;" parent="YpGhRkBLHknayNMrXKQS-332" vertex="1">
          <mxGeometry x="307" width="66" height="19" as="geometry">
            <mxRectangle width="66" height="19" as="alternateBounds" />
          </mxGeometry>
        </mxCell>
        <mxCell id="YpGhRkBLHknayNMrXKQS-338" value="" style="swimlane;swimlaneHead=0;swimlaneBody=0;fontStyle=0;connectable=0;strokeColor=inherit;fillColor=none;startSize=0;collapsible=0;recursiveResize=0;expand=0;" parent="YpGhRkBLHknayNMrXKQS-332" vertex="1">
          <mxGeometry x="373" width="67" height="19" as="geometry">
            <mxRectangle width="67" height="19" as="alternateBounds" />
          </mxGeometry>
        </mxCell>
        <mxCell id="YpGhRkBLHknayNMrXKQS-339" value="" style="swimlane;swimlaneHead=0;swimlaneBody=0;fontStyle=0;connectable=0;strokeColor=inherit;fillColor=none;startSize=0;collapsible=0;recursiveResize=0;expand=0;" parent="YpGhRkBLHknayNMrXKQS-332" vertex="1">
          <mxGeometry x="440" width="67" height="19" as="geometry">
            <mxRectangle width="67" height="19" as="alternateBounds" />
          </mxGeometry>
        </mxCell>
        <mxCell id="YpGhRkBLHknayNMrXKQS-340" value="" style="swimlane;swimlaneHead=0;swimlaneBody=0;fontStyle=0;connectable=0;strokeColor=inherit;fillColor=none;startSize=0;collapsible=0;recursiveResize=0;expand=0;" parent="YpGhRkBLHknayNMrXKQS-332" vertex="1">
          <mxGeometry x="507" width="66" height="19" as="geometry">
            <mxRectangle width="66" height="19" as="alternateBounds" />
          </mxGeometry>
        </mxCell>
        <mxCell id="YpGhRkBLHknayNMrXKQS-341" value="" style="swimlane;swimlaneHead=0;swimlaneBody=0;fontStyle=0;connectable=0;strokeColor=inherit;fillColor=none;startSize=0;collapsible=0;recursiveResize=0;expand=0;" parent="YpGhRkBLHknayNMrXKQS-332" vertex="1">
          <mxGeometry x="573" width="67" height="19" as="geometry">
            <mxRectangle width="67" height="19" as="alternateBounds" />
          </mxGeometry>
        </mxCell>
        <mxCell id="YpGhRkBLHknayNMrXKQS-342" value="" style="shape=tableRow;horizontal=0;swimlaneHead=0;swimlaneBody=0;top=0;left=0;strokeColor=inherit;bottom=0;right=0;dropTarget=0;fontStyle=0;fillColor=none;points=[[0,0.5],[1,0.5]];portConstraint=eastwest;startSize=40;collapsible=0;recursiveResize=0;expand=0;" parent="YpGhRkBLHknayNMrXKQS-291" vertex="1">
          <mxGeometry y="97" width="640" height="19" as="geometry" />
        </mxCell>
        <mxCell id="YpGhRkBLHknayNMrXKQS-343" value="" style="swimlane;swimlaneHead=0;swimlaneBody=0;fontStyle=0;connectable=0;strokeColor=inherit;fillColor=none;startSize=0;collapsible=0;recursiveResize=0;expand=0;" parent="YpGhRkBLHknayNMrXKQS-342" vertex="1">
          <mxGeometry x="40" width="67" height="19" as="geometry">
            <mxRectangle width="67" height="19" as="alternateBounds" />
          </mxGeometry>
        </mxCell>
        <mxCell id="YpGhRkBLHknayNMrXKQS-344" value="" style="swimlane;swimlaneHead=0;swimlaneBody=0;fontStyle=0;connectable=0;strokeColor=inherit;fillColor=none;startSize=0;collapsible=0;recursiveResize=0;expand=0;" parent="YpGhRkBLHknayNMrXKQS-342" vertex="1">
          <mxGeometry x="107" width="66" height="19" as="geometry">
            <mxRectangle width="66" height="19" as="alternateBounds" />
          </mxGeometry>
        </mxCell>
        <mxCell id="YpGhRkBLHknayNMrXKQS-345" value="" style="swimlane;swimlaneHead=0;swimlaneBody=0;fontStyle=0;connectable=0;strokeColor=inherit;fillColor=none;startSize=0;collapsible=0;recursiveResize=0;expand=0;" parent="YpGhRkBLHknayNMrXKQS-342" vertex="1">
          <mxGeometry x="173" width="67" height="19" as="geometry">
            <mxRectangle width="67" height="19" as="alternateBounds" />
          </mxGeometry>
        </mxCell>
        <mxCell id="YpGhRkBLHknayNMrXKQS-346" value="" style="swimlane;swimlaneHead=0;swimlaneBody=0;fontStyle=0;connectable=0;strokeColor=inherit;fillColor=none;startSize=0;collapsible=0;recursiveResize=0;expand=0;" parent="YpGhRkBLHknayNMrXKQS-342" vertex="1">
          <mxGeometry x="240" width="67" height="19" as="geometry">
            <mxRectangle width="67" height="19" as="alternateBounds" />
          </mxGeometry>
        </mxCell>
        <mxCell id="YpGhRkBLHknayNMrXKQS-347" value="" style="swimlane;swimlaneHead=0;swimlaneBody=0;fontStyle=0;connectable=0;strokeColor=inherit;fillColor=none;startSize=0;collapsible=0;recursiveResize=0;expand=0;" parent="YpGhRkBLHknayNMrXKQS-342" vertex="1">
          <mxGeometry x="307" width="66" height="19" as="geometry">
            <mxRectangle width="66" height="19" as="alternateBounds" />
          </mxGeometry>
        </mxCell>
        <mxCell id="YpGhRkBLHknayNMrXKQS-348" value="" style="swimlane;swimlaneHead=0;swimlaneBody=0;fontStyle=0;connectable=0;strokeColor=inherit;fillColor=none;startSize=0;collapsible=0;recursiveResize=0;expand=0;" parent="YpGhRkBLHknayNMrXKQS-342" vertex="1">
          <mxGeometry x="373" width="67" height="19" as="geometry">
            <mxRectangle width="67" height="19" as="alternateBounds" />
          </mxGeometry>
        </mxCell>
        <mxCell id="YpGhRkBLHknayNMrXKQS-349" value="" style="swimlane;swimlaneHead=0;swimlaneBody=0;fontStyle=0;connectable=0;strokeColor=inherit;fillColor=none;startSize=0;collapsible=0;recursiveResize=0;expand=0;" parent="YpGhRkBLHknayNMrXKQS-342" vertex="1">
          <mxGeometry x="440" width="67" height="19" as="geometry">
            <mxRectangle width="67" height="19" as="alternateBounds" />
          </mxGeometry>
        </mxCell>
        <mxCell id="YpGhRkBLHknayNMrXKQS-350" value="" style="swimlane;swimlaneHead=0;swimlaneBody=0;fontStyle=0;connectable=0;strokeColor=inherit;fillColor=none;startSize=0;collapsible=0;recursiveResize=0;expand=0;" parent="YpGhRkBLHknayNMrXKQS-342" vertex="1">
          <mxGeometry x="507" width="66" height="19" as="geometry">
            <mxRectangle width="66" height="19" as="alternateBounds" />
          </mxGeometry>
        </mxCell>
        <mxCell id="YpGhRkBLHknayNMrXKQS-351" value="" style="swimlane;swimlaneHead=0;swimlaneBody=0;fontStyle=0;connectable=0;strokeColor=inherit;fillColor=none;startSize=0;collapsible=0;recursiveResize=0;expand=0;" parent="YpGhRkBLHknayNMrXKQS-342" vertex="1">
          <mxGeometry x="573" width="67" height="19" as="geometry">
            <mxRectangle width="67" height="19" as="alternateBounds" />
          </mxGeometry>
        </mxCell>
        <mxCell id="YpGhRkBLHknayNMrXKQS-352" value="" style="shape=tableRow;horizontal=0;swimlaneHead=0;swimlaneBody=0;top=0;left=0;strokeColor=inherit;bottom=0;right=0;dropTarget=0;fontStyle=0;fillColor=none;points=[[0,0.5],[1,0.5]];portConstraint=eastwest;startSize=40;collapsible=0;recursiveResize=0;expand=0;" parent="YpGhRkBLHknayNMrXKQS-291" vertex="1">
          <mxGeometry y="116" width="640" height="20" as="geometry" />
        </mxCell>
        <mxCell id="YpGhRkBLHknayNMrXKQS-353" value="" style="swimlane;swimlaneHead=0;swimlaneBody=0;fontStyle=0;connectable=0;strokeColor=inherit;fillColor=none;startSize=0;collapsible=0;recursiveResize=0;expand=0;" parent="YpGhRkBLHknayNMrXKQS-352" vertex="1">
          <mxGeometry x="40" width="67" height="20" as="geometry">
            <mxRectangle width="67" height="20" as="alternateBounds" />
          </mxGeometry>
        </mxCell>
        <mxCell id="YpGhRkBLHknayNMrXKQS-354" value="" style="swimlane;swimlaneHead=0;swimlaneBody=0;fontStyle=0;connectable=0;strokeColor=inherit;fillColor=none;startSize=0;collapsible=0;recursiveResize=0;expand=0;" parent="YpGhRkBLHknayNMrXKQS-352" vertex="1">
          <mxGeometry x="107" width="66" height="20" as="geometry">
            <mxRectangle width="66" height="20" as="alternateBounds" />
          </mxGeometry>
        </mxCell>
        <mxCell id="YpGhRkBLHknayNMrXKQS-355" value="" style="swimlane;swimlaneHead=0;swimlaneBody=0;fontStyle=0;connectable=0;strokeColor=inherit;fillColor=none;startSize=0;collapsible=0;recursiveResize=0;expand=0;" parent="YpGhRkBLHknayNMrXKQS-352" vertex="1">
          <mxGeometry x="173" width="67" height="20" as="geometry">
            <mxRectangle width="67" height="20" as="alternateBounds" />
          </mxGeometry>
        </mxCell>
        <mxCell id="YpGhRkBLHknayNMrXKQS-356" value="" style="swimlane;swimlaneHead=0;swimlaneBody=0;fontStyle=0;connectable=0;strokeColor=inherit;fillColor=none;startSize=0;collapsible=0;recursiveResize=0;expand=0;" parent="YpGhRkBLHknayNMrXKQS-352" vertex="1">
          <mxGeometry x="240" width="67" height="20" as="geometry">
            <mxRectangle width="67" height="20" as="alternateBounds" />
          </mxGeometry>
        </mxCell>
        <mxCell id="YpGhRkBLHknayNMrXKQS-357" value="" style="swimlane;swimlaneHead=0;swimlaneBody=0;fontStyle=0;connectable=0;strokeColor=inherit;fillColor=none;startSize=0;collapsible=0;recursiveResize=0;expand=0;" parent="YpGhRkBLHknayNMrXKQS-352" vertex="1">
          <mxGeometry x="307" width="66" height="20" as="geometry">
            <mxRectangle width="66" height="20" as="alternateBounds" />
          </mxGeometry>
        </mxCell>
        <mxCell id="YpGhRkBLHknayNMrXKQS-358" value="" style="swimlane;swimlaneHead=0;swimlaneBody=0;fontStyle=0;connectable=0;strokeColor=inherit;fillColor=none;startSize=0;collapsible=0;recursiveResize=0;expand=0;" parent="YpGhRkBLHknayNMrXKQS-352" vertex="1">
          <mxGeometry x="373" width="67" height="20" as="geometry">
            <mxRectangle width="67" height="20" as="alternateBounds" />
          </mxGeometry>
        </mxCell>
        <mxCell id="YpGhRkBLHknayNMrXKQS-359" value="" style="swimlane;swimlaneHead=0;swimlaneBody=0;fontStyle=0;connectable=0;strokeColor=inherit;fillColor=none;startSize=0;collapsible=0;recursiveResize=0;expand=0;" parent="YpGhRkBLHknayNMrXKQS-352" vertex="1">
          <mxGeometry x="440" width="67" height="20" as="geometry">
            <mxRectangle width="67" height="20" as="alternateBounds" />
          </mxGeometry>
        </mxCell>
        <mxCell id="YpGhRkBLHknayNMrXKQS-360" value="" style="swimlane;swimlaneHead=0;swimlaneBody=0;fontStyle=0;connectable=0;strokeColor=inherit;fillColor=none;startSize=0;collapsible=0;recursiveResize=0;expand=0;" parent="YpGhRkBLHknayNMrXKQS-352" vertex="1">
          <mxGeometry x="507" width="66" height="20" as="geometry">
            <mxRectangle width="66" height="20" as="alternateBounds" />
          </mxGeometry>
        </mxCell>
        <mxCell id="YpGhRkBLHknayNMrXKQS-361" value="" style="swimlane;swimlaneHead=0;swimlaneBody=0;fontStyle=0;connectable=0;strokeColor=inherit;fillColor=none;startSize=0;collapsible=0;recursiveResize=0;expand=0;" parent="YpGhRkBLHknayNMrXKQS-352" vertex="1">
          <mxGeometry x="573" width="67" height="20" as="geometry">
            <mxRectangle width="67" height="20" as="alternateBounds" />
          </mxGeometry>
        </mxCell>
        <mxCell id="YpGhRkBLHknayNMrXKQS-362" value="" style="shape=tableRow;horizontal=0;swimlaneHead=0;swimlaneBody=0;top=0;left=0;strokeColor=inherit;bottom=0;right=0;dropTarget=0;fontStyle=0;fillColor=none;points=[[0,0.5],[1,0.5]];portConstraint=eastwest;startSize=40;collapsible=0;recursiveResize=0;expand=0;" parent="YpGhRkBLHknayNMrXKQS-291" vertex="1">
          <mxGeometry y="136" width="640" height="19" as="geometry" />
        </mxCell>
        <mxCell id="YpGhRkBLHknayNMrXKQS-363" value="" style="swimlane;swimlaneHead=0;swimlaneBody=0;fontStyle=0;connectable=0;strokeColor=inherit;fillColor=none;startSize=0;collapsible=0;recursiveResize=0;expand=0;" parent="YpGhRkBLHknayNMrXKQS-362" vertex="1">
          <mxGeometry x="40" width="67" height="19" as="geometry">
            <mxRectangle width="67" height="19" as="alternateBounds" />
          </mxGeometry>
        </mxCell>
        <mxCell id="YpGhRkBLHknayNMrXKQS-364" value="" style="swimlane;swimlaneHead=0;swimlaneBody=0;fontStyle=0;connectable=0;strokeColor=inherit;fillColor=none;startSize=0;collapsible=0;recursiveResize=0;expand=0;" parent="YpGhRkBLHknayNMrXKQS-362" vertex="1">
          <mxGeometry x="107" width="66" height="19" as="geometry">
            <mxRectangle width="66" height="19" as="alternateBounds" />
          </mxGeometry>
        </mxCell>
        <mxCell id="YpGhRkBLHknayNMrXKQS-365" value="" style="swimlane;swimlaneHead=0;swimlaneBody=0;fontStyle=0;connectable=0;strokeColor=inherit;fillColor=none;startSize=0;collapsible=0;recursiveResize=0;expand=0;" parent="YpGhRkBLHknayNMrXKQS-362" vertex="1">
          <mxGeometry x="173" width="67" height="19" as="geometry">
            <mxRectangle width="67" height="19" as="alternateBounds" />
          </mxGeometry>
        </mxCell>
        <mxCell id="YpGhRkBLHknayNMrXKQS-366" value="" style="swimlane;swimlaneHead=0;swimlaneBody=0;fontStyle=0;connectable=0;strokeColor=inherit;fillColor=none;startSize=0;collapsible=0;recursiveResize=0;expand=0;" parent="YpGhRkBLHknayNMrXKQS-362" vertex="1">
          <mxGeometry x="240" width="67" height="19" as="geometry">
            <mxRectangle width="67" height="19" as="alternateBounds" />
          </mxGeometry>
        </mxCell>
        <mxCell id="YpGhRkBLHknayNMrXKQS-367" value="" style="swimlane;swimlaneHead=0;swimlaneBody=0;fontStyle=0;connectable=0;strokeColor=inherit;fillColor=none;startSize=0;collapsible=0;recursiveResize=0;expand=0;" parent="YpGhRkBLHknayNMrXKQS-362" vertex="1">
          <mxGeometry x="307" width="66" height="19" as="geometry">
            <mxRectangle width="66" height="19" as="alternateBounds" />
          </mxGeometry>
        </mxCell>
        <mxCell id="YpGhRkBLHknayNMrXKQS-368" value="" style="swimlane;swimlaneHead=0;swimlaneBody=0;fontStyle=0;connectable=0;strokeColor=inherit;fillColor=none;startSize=0;collapsible=0;recursiveResize=0;expand=0;" parent="YpGhRkBLHknayNMrXKQS-362" vertex="1">
          <mxGeometry x="373" width="67" height="19" as="geometry">
            <mxRectangle width="67" height="19" as="alternateBounds" />
          </mxGeometry>
        </mxCell>
        <mxCell id="YpGhRkBLHknayNMrXKQS-369" value="" style="swimlane;swimlaneHead=0;swimlaneBody=0;fontStyle=0;connectable=0;strokeColor=inherit;fillColor=none;startSize=0;collapsible=0;recursiveResize=0;expand=0;" parent="YpGhRkBLHknayNMrXKQS-362" vertex="1">
          <mxGeometry x="440" width="67" height="19" as="geometry">
            <mxRectangle width="67" height="19" as="alternateBounds" />
          </mxGeometry>
        </mxCell>
        <mxCell id="YpGhRkBLHknayNMrXKQS-370" value="" style="swimlane;swimlaneHead=0;swimlaneBody=0;fontStyle=0;connectable=0;strokeColor=inherit;fillColor=none;startSize=0;collapsible=0;recursiveResize=0;expand=0;" parent="YpGhRkBLHknayNMrXKQS-362" vertex="1">
          <mxGeometry x="507" width="66" height="19" as="geometry">
            <mxRectangle width="66" height="19" as="alternateBounds" />
          </mxGeometry>
        </mxCell>
        <mxCell id="YpGhRkBLHknayNMrXKQS-371" value="" style="swimlane;swimlaneHead=0;swimlaneBody=0;fontStyle=0;connectable=0;strokeColor=inherit;fillColor=none;startSize=0;collapsible=0;recursiveResize=0;expand=0;" parent="YpGhRkBLHknayNMrXKQS-362" vertex="1">
          <mxGeometry x="573" width="67" height="19" as="geometry">
            <mxRectangle width="67" height="19" as="alternateBounds" />
          </mxGeometry>
        </mxCell>
        <mxCell id="YpGhRkBLHknayNMrXKQS-372" value="" style="shape=tableRow;horizontal=0;swimlaneHead=0;swimlaneBody=0;top=0;left=0;strokeColor=inherit;bottom=0;right=0;dropTarget=0;fontStyle=0;fillColor=none;points=[[0,0.5],[1,0.5]];portConstraint=eastwest;startSize=40;collapsible=0;recursiveResize=0;expand=0;" parent="YpGhRkBLHknayNMrXKQS-291" vertex="1">
          <mxGeometry y="155" width="640" height="19" as="geometry" />
        </mxCell>
        <mxCell id="YpGhRkBLHknayNMrXKQS-373" value="" style="swimlane;swimlaneHead=0;swimlaneBody=0;fontStyle=0;connectable=0;strokeColor=inherit;fillColor=none;startSize=0;collapsible=0;recursiveResize=0;expand=0;" parent="YpGhRkBLHknayNMrXKQS-372" vertex="1">
          <mxGeometry x="40" width="67" height="19" as="geometry">
            <mxRectangle width="67" height="19" as="alternateBounds" />
          </mxGeometry>
        </mxCell>
        <mxCell id="YpGhRkBLHknayNMrXKQS-374" value="" style="swimlane;swimlaneHead=0;swimlaneBody=0;fontStyle=0;connectable=0;strokeColor=inherit;fillColor=none;startSize=0;collapsible=0;recursiveResize=0;expand=0;" parent="YpGhRkBLHknayNMrXKQS-372" vertex="1">
          <mxGeometry x="107" width="66" height="19" as="geometry">
            <mxRectangle width="66" height="19" as="alternateBounds" />
          </mxGeometry>
        </mxCell>
        <mxCell id="YpGhRkBLHknayNMrXKQS-375" value="" style="swimlane;swimlaneHead=0;swimlaneBody=0;fontStyle=0;connectable=0;strokeColor=inherit;fillColor=none;startSize=0;collapsible=0;recursiveResize=0;expand=0;" parent="YpGhRkBLHknayNMrXKQS-372" vertex="1">
          <mxGeometry x="173" width="67" height="19" as="geometry">
            <mxRectangle width="67" height="19" as="alternateBounds" />
          </mxGeometry>
        </mxCell>
        <mxCell id="YpGhRkBLHknayNMrXKQS-376" value="" style="swimlane;swimlaneHead=0;swimlaneBody=0;fontStyle=0;connectable=0;strokeColor=inherit;fillColor=none;startSize=0;collapsible=0;recursiveResize=0;expand=0;" parent="YpGhRkBLHknayNMrXKQS-372" vertex="1">
          <mxGeometry x="240" width="67" height="19" as="geometry">
            <mxRectangle width="67" height="19" as="alternateBounds" />
          </mxGeometry>
        </mxCell>
        <mxCell id="YpGhRkBLHknayNMrXKQS-377" value="" style="swimlane;swimlaneHead=0;swimlaneBody=0;fontStyle=0;connectable=0;strokeColor=inherit;fillColor=none;startSize=0;collapsible=0;recursiveResize=0;expand=0;" parent="YpGhRkBLHknayNMrXKQS-372" vertex="1">
          <mxGeometry x="307" width="66" height="19" as="geometry">
            <mxRectangle width="66" height="19" as="alternateBounds" />
          </mxGeometry>
        </mxCell>
        <mxCell id="YpGhRkBLHknayNMrXKQS-378" value="" style="swimlane;swimlaneHead=0;swimlaneBody=0;fontStyle=0;connectable=0;strokeColor=inherit;fillColor=none;startSize=0;collapsible=0;recursiveResize=0;expand=0;" parent="YpGhRkBLHknayNMrXKQS-372" vertex="1">
          <mxGeometry x="373" width="67" height="19" as="geometry">
            <mxRectangle width="67" height="19" as="alternateBounds" />
          </mxGeometry>
        </mxCell>
        <mxCell id="YpGhRkBLHknayNMrXKQS-379" value="" style="swimlane;swimlaneHead=0;swimlaneBody=0;fontStyle=0;connectable=0;strokeColor=inherit;fillColor=none;startSize=0;collapsible=0;recursiveResize=0;expand=0;" parent="YpGhRkBLHknayNMrXKQS-372" vertex="1">
          <mxGeometry x="440" width="67" height="19" as="geometry">
            <mxRectangle width="67" height="19" as="alternateBounds" />
          </mxGeometry>
        </mxCell>
        <mxCell id="YpGhRkBLHknayNMrXKQS-380" value="" style="swimlane;swimlaneHead=0;swimlaneBody=0;fontStyle=0;connectable=0;strokeColor=inherit;fillColor=none;startSize=0;collapsible=0;recursiveResize=0;expand=0;" parent="YpGhRkBLHknayNMrXKQS-372" vertex="1">
          <mxGeometry x="507" width="66" height="19" as="geometry">
            <mxRectangle width="66" height="19" as="alternateBounds" />
          </mxGeometry>
        </mxCell>
        <mxCell id="YpGhRkBLHknayNMrXKQS-381" value="" style="swimlane;swimlaneHead=0;swimlaneBody=0;fontStyle=0;connectable=0;strokeColor=inherit;fillColor=none;startSize=0;collapsible=0;recursiveResize=0;expand=0;" parent="YpGhRkBLHknayNMrXKQS-372" vertex="1">
          <mxGeometry x="573" width="67" height="19" as="geometry">
            <mxRectangle width="67" height="19" as="alternateBounds" />
          </mxGeometry>
        </mxCell>
        <mxCell id="YpGhRkBLHknayNMrXKQS-382" value="" style="shape=tableRow;horizontal=0;swimlaneHead=0;swimlaneBody=0;top=0;left=0;strokeColor=inherit;bottom=0;right=0;dropTarget=0;fontStyle=0;fillColor=none;points=[[0,0.5],[1,0.5]];portConstraint=eastwest;startSize=40;collapsible=0;recursiveResize=0;expand=0;" parent="YpGhRkBLHknayNMrXKQS-291" vertex="1">
          <mxGeometry y="174" width="640" height="19" as="geometry" />
        </mxCell>
        <mxCell id="YpGhRkBLHknayNMrXKQS-383" value="" style="swimlane;swimlaneHead=0;swimlaneBody=0;fontStyle=0;connectable=0;strokeColor=inherit;fillColor=none;startSize=0;collapsible=0;recursiveResize=0;expand=0;" parent="YpGhRkBLHknayNMrXKQS-382" vertex="1">
          <mxGeometry x="40" width="67" height="19" as="geometry">
            <mxRectangle width="67" height="19" as="alternateBounds" />
          </mxGeometry>
        </mxCell>
        <mxCell id="YpGhRkBLHknayNMrXKQS-384" value="" style="swimlane;swimlaneHead=0;swimlaneBody=0;fontStyle=0;connectable=0;strokeColor=inherit;fillColor=none;startSize=0;collapsible=0;recursiveResize=0;expand=0;" parent="YpGhRkBLHknayNMrXKQS-382" vertex="1">
          <mxGeometry x="107" width="66" height="19" as="geometry">
            <mxRectangle width="66" height="19" as="alternateBounds" />
          </mxGeometry>
        </mxCell>
        <mxCell id="YpGhRkBLHknayNMrXKQS-385" value="" style="swimlane;swimlaneHead=0;swimlaneBody=0;fontStyle=0;connectable=0;strokeColor=inherit;fillColor=none;startSize=0;collapsible=0;recursiveResize=0;expand=0;" parent="YpGhRkBLHknayNMrXKQS-382" vertex="1">
          <mxGeometry x="173" width="67" height="19" as="geometry">
            <mxRectangle width="67" height="19" as="alternateBounds" />
          </mxGeometry>
        </mxCell>
        <mxCell id="YpGhRkBLHknayNMrXKQS-386" value="" style="swimlane;swimlaneHead=0;swimlaneBody=0;fontStyle=0;connectable=0;strokeColor=inherit;fillColor=none;startSize=0;collapsible=0;recursiveResize=0;expand=0;" parent="YpGhRkBLHknayNMrXKQS-382" vertex="1">
          <mxGeometry x="240" width="67" height="19" as="geometry">
            <mxRectangle width="67" height="19" as="alternateBounds" />
          </mxGeometry>
        </mxCell>
        <mxCell id="YpGhRkBLHknayNMrXKQS-387" value="" style="swimlane;swimlaneHead=0;swimlaneBody=0;fontStyle=0;connectable=0;strokeColor=inherit;fillColor=none;startSize=0;collapsible=0;recursiveResize=0;expand=0;" parent="YpGhRkBLHknayNMrXKQS-382" vertex="1">
          <mxGeometry x="307" width="66" height="19" as="geometry">
            <mxRectangle width="66" height="19" as="alternateBounds" />
          </mxGeometry>
        </mxCell>
        <mxCell id="YpGhRkBLHknayNMrXKQS-388" value="" style="swimlane;swimlaneHead=0;swimlaneBody=0;fontStyle=0;connectable=0;strokeColor=inherit;fillColor=none;startSize=0;collapsible=0;recursiveResize=0;expand=0;" parent="YpGhRkBLHknayNMrXKQS-382" vertex="1">
          <mxGeometry x="373" width="67" height="19" as="geometry">
            <mxRectangle width="67" height="19" as="alternateBounds" />
          </mxGeometry>
        </mxCell>
        <mxCell id="YpGhRkBLHknayNMrXKQS-389" value="" style="swimlane;swimlaneHead=0;swimlaneBody=0;fontStyle=0;connectable=0;strokeColor=inherit;fillColor=none;startSize=0;collapsible=0;recursiveResize=0;expand=0;" parent="YpGhRkBLHknayNMrXKQS-382" vertex="1">
          <mxGeometry x="440" width="67" height="19" as="geometry">
            <mxRectangle width="67" height="19" as="alternateBounds" />
          </mxGeometry>
        </mxCell>
        <mxCell id="YpGhRkBLHknayNMrXKQS-390" value="" style="swimlane;swimlaneHead=0;swimlaneBody=0;fontStyle=0;connectable=0;strokeColor=inherit;fillColor=none;startSize=0;collapsible=0;recursiveResize=0;expand=0;" parent="YpGhRkBLHknayNMrXKQS-382" vertex="1">
          <mxGeometry x="507" width="66" height="19" as="geometry">
            <mxRectangle width="66" height="19" as="alternateBounds" />
          </mxGeometry>
        </mxCell>
        <mxCell id="YpGhRkBLHknayNMrXKQS-391" value="" style="swimlane;swimlaneHead=0;swimlaneBody=0;fontStyle=0;connectable=0;strokeColor=inherit;fillColor=none;startSize=0;collapsible=0;recursiveResize=0;expand=0;" parent="YpGhRkBLHknayNMrXKQS-382" vertex="1">
          <mxGeometry x="573" width="67" height="19" as="geometry">
            <mxRectangle width="67" height="19" as="alternateBounds" />
          </mxGeometry>
        </mxCell>
        <mxCell id="YpGhRkBLHknayNMrXKQS-392" value="" style="shape=tableRow;horizontal=0;swimlaneHead=0;swimlaneBody=0;top=0;left=0;strokeColor=inherit;bottom=0;right=0;dropTarget=0;fontStyle=0;fillColor=none;points=[[0,0.5],[1,0.5]];portConstraint=eastwest;startSize=40;collapsible=0;recursiveResize=0;expand=0;" parent="YpGhRkBLHknayNMrXKQS-291" vertex="1">
          <mxGeometry y="193" width="640" height="20" as="geometry" />
        </mxCell>
        <mxCell id="YpGhRkBLHknayNMrXKQS-393" value="" style="swimlane;swimlaneHead=0;swimlaneBody=0;fontStyle=0;connectable=0;strokeColor=inherit;fillColor=none;startSize=0;collapsible=0;recursiveResize=0;expand=0;" parent="YpGhRkBLHknayNMrXKQS-392" vertex="1">
          <mxGeometry x="40" width="67" height="20" as="geometry">
            <mxRectangle width="67" height="20" as="alternateBounds" />
          </mxGeometry>
        </mxCell>
        <mxCell id="YpGhRkBLHknayNMrXKQS-394" value="" style="swimlane;swimlaneHead=0;swimlaneBody=0;fontStyle=0;connectable=0;strokeColor=inherit;fillColor=none;startSize=0;collapsible=0;recursiveResize=0;expand=0;" parent="YpGhRkBLHknayNMrXKQS-392" vertex="1">
          <mxGeometry x="107" width="66" height="20" as="geometry">
            <mxRectangle width="66" height="20" as="alternateBounds" />
          </mxGeometry>
        </mxCell>
        <mxCell id="YpGhRkBLHknayNMrXKQS-395" value="" style="swimlane;swimlaneHead=0;swimlaneBody=0;fontStyle=0;connectable=0;strokeColor=inherit;fillColor=none;startSize=0;collapsible=0;recursiveResize=0;expand=0;" parent="YpGhRkBLHknayNMrXKQS-392" vertex="1">
          <mxGeometry x="173" width="67" height="20" as="geometry">
            <mxRectangle width="67" height="20" as="alternateBounds" />
          </mxGeometry>
        </mxCell>
        <mxCell id="YpGhRkBLHknayNMrXKQS-396" value="" style="swimlane;swimlaneHead=0;swimlaneBody=0;fontStyle=0;connectable=0;strokeColor=inherit;fillColor=none;startSize=0;collapsible=0;recursiveResize=0;expand=0;" parent="YpGhRkBLHknayNMrXKQS-392" vertex="1">
          <mxGeometry x="240" width="67" height="20" as="geometry">
            <mxRectangle width="67" height="20" as="alternateBounds" />
          </mxGeometry>
        </mxCell>
        <mxCell id="YpGhRkBLHknayNMrXKQS-397" value="" style="swimlane;swimlaneHead=0;swimlaneBody=0;fontStyle=0;connectable=0;strokeColor=inherit;fillColor=none;startSize=0;collapsible=0;recursiveResize=0;expand=0;" parent="YpGhRkBLHknayNMrXKQS-392" vertex="1">
          <mxGeometry x="307" width="66" height="20" as="geometry">
            <mxRectangle width="66" height="20" as="alternateBounds" />
          </mxGeometry>
        </mxCell>
        <mxCell id="YpGhRkBLHknayNMrXKQS-398" value="" style="swimlane;swimlaneHead=0;swimlaneBody=0;fontStyle=0;connectable=0;strokeColor=inherit;fillColor=none;startSize=0;collapsible=0;recursiveResize=0;expand=0;" parent="YpGhRkBLHknayNMrXKQS-392" vertex="1">
          <mxGeometry x="373" width="67" height="20" as="geometry">
            <mxRectangle width="67" height="20" as="alternateBounds" />
          </mxGeometry>
        </mxCell>
        <mxCell id="YpGhRkBLHknayNMrXKQS-399" value="" style="swimlane;swimlaneHead=0;swimlaneBody=0;fontStyle=0;connectable=0;strokeColor=inherit;fillColor=none;startSize=0;collapsible=0;recursiveResize=0;expand=0;" parent="YpGhRkBLHknayNMrXKQS-392" vertex="1">
          <mxGeometry x="440" width="67" height="20" as="geometry">
            <mxRectangle width="67" height="20" as="alternateBounds" />
          </mxGeometry>
        </mxCell>
        <mxCell id="YpGhRkBLHknayNMrXKQS-400" value="" style="swimlane;swimlaneHead=0;swimlaneBody=0;fontStyle=0;connectable=0;strokeColor=inherit;fillColor=none;startSize=0;collapsible=0;recursiveResize=0;expand=0;" parent="YpGhRkBLHknayNMrXKQS-392" vertex="1">
          <mxGeometry x="507" width="66" height="20" as="geometry">
            <mxRectangle width="66" height="20" as="alternateBounds" />
          </mxGeometry>
        </mxCell>
        <mxCell id="YpGhRkBLHknayNMrXKQS-401" value="" style="swimlane;swimlaneHead=0;swimlaneBody=0;fontStyle=0;connectable=0;strokeColor=inherit;fillColor=none;startSize=0;collapsible=0;recursiveResize=0;expand=0;" parent="YpGhRkBLHknayNMrXKQS-392" vertex="1">
          <mxGeometry x="573" width="67" height="20" as="geometry">
            <mxRectangle width="67" height="20" as="alternateBounds" />
          </mxGeometry>
        </mxCell>
        <mxCell id="YpGhRkBLHknayNMrXKQS-402" value="" style="shape=tableRow;horizontal=0;swimlaneHead=0;swimlaneBody=0;top=0;left=0;strokeColor=inherit;bottom=0;right=0;dropTarget=0;fontStyle=0;fillColor=none;points=[[0,0.5],[1,0.5]];portConstraint=eastwest;startSize=40;collapsible=0;recursiveResize=0;expand=0;" parent="YpGhRkBLHknayNMrXKQS-291" vertex="1">
          <mxGeometry y="213" width="640" height="19" as="geometry" />
        </mxCell>
        <mxCell id="YpGhRkBLHknayNMrXKQS-403" value="" style="swimlane;swimlaneHead=0;swimlaneBody=0;fontStyle=0;connectable=0;strokeColor=inherit;fillColor=none;startSize=0;collapsible=0;recursiveResize=0;expand=0;" parent="YpGhRkBLHknayNMrXKQS-402" vertex="1">
          <mxGeometry x="40" width="67" height="19" as="geometry">
            <mxRectangle width="67" height="19" as="alternateBounds" />
          </mxGeometry>
        </mxCell>
        <mxCell id="YpGhRkBLHknayNMrXKQS-404" value="" style="swimlane;swimlaneHead=0;swimlaneBody=0;fontStyle=0;connectable=0;strokeColor=inherit;fillColor=none;startSize=0;collapsible=0;recursiveResize=0;expand=0;" parent="YpGhRkBLHknayNMrXKQS-402" vertex="1">
          <mxGeometry x="107" width="66" height="19" as="geometry">
            <mxRectangle width="66" height="19" as="alternateBounds" />
          </mxGeometry>
        </mxCell>
        <mxCell id="YpGhRkBLHknayNMrXKQS-405" value="" style="swimlane;swimlaneHead=0;swimlaneBody=0;fontStyle=0;connectable=0;strokeColor=inherit;fillColor=none;startSize=0;collapsible=0;recursiveResize=0;expand=0;" parent="YpGhRkBLHknayNMrXKQS-402" vertex="1">
          <mxGeometry x="173" width="67" height="19" as="geometry">
            <mxRectangle width="67" height="19" as="alternateBounds" />
          </mxGeometry>
        </mxCell>
        <mxCell id="YpGhRkBLHknayNMrXKQS-406" value="" style="swimlane;swimlaneHead=0;swimlaneBody=0;fontStyle=0;connectable=0;strokeColor=inherit;fillColor=none;startSize=0;collapsible=0;recursiveResize=0;expand=0;" parent="YpGhRkBLHknayNMrXKQS-402" vertex="1">
          <mxGeometry x="240" width="67" height="19" as="geometry">
            <mxRectangle width="67" height="19" as="alternateBounds" />
          </mxGeometry>
        </mxCell>
        <mxCell id="YpGhRkBLHknayNMrXKQS-407" value="" style="swimlane;swimlaneHead=0;swimlaneBody=0;fontStyle=0;connectable=0;strokeColor=inherit;fillColor=none;startSize=0;collapsible=0;recursiveResize=0;expand=0;" parent="YpGhRkBLHknayNMrXKQS-402" vertex="1">
          <mxGeometry x="307" width="66" height="19" as="geometry">
            <mxRectangle width="66" height="19" as="alternateBounds" />
          </mxGeometry>
        </mxCell>
        <mxCell id="YpGhRkBLHknayNMrXKQS-408" value="" style="swimlane;swimlaneHead=0;swimlaneBody=0;fontStyle=0;connectable=0;strokeColor=inherit;fillColor=none;startSize=0;collapsible=0;recursiveResize=0;expand=0;" parent="YpGhRkBLHknayNMrXKQS-402" vertex="1">
          <mxGeometry x="373" width="67" height="19" as="geometry">
            <mxRectangle width="67" height="19" as="alternateBounds" />
          </mxGeometry>
        </mxCell>
        <mxCell id="YpGhRkBLHknayNMrXKQS-409" value="" style="swimlane;swimlaneHead=0;swimlaneBody=0;fontStyle=0;connectable=0;strokeColor=inherit;fillColor=none;startSize=0;collapsible=0;recursiveResize=0;expand=0;" parent="YpGhRkBLHknayNMrXKQS-402" vertex="1">
          <mxGeometry x="440" width="67" height="19" as="geometry">
            <mxRectangle width="67" height="19" as="alternateBounds" />
          </mxGeometry>
        </mxCell>
        <mxCell id="YpGhRkBLHknayNMrXKQS-410" value="" style="swimlane;swimlaneHead=0;swimlaneBody=0;fontStyle=0;connectable=0;strokeColor=inherit;fillColor=none;startSize=0;collapsible=0;recursiveResize=0;expand=0;" parent="YpGhRkBLHknayNMrXKQS-402" vertex="1">
          <mxGeometry x="507" width="66" height="19" as="geometry">
            <mxRectangle width="66" height="19" as="alternateBounds" />
          </mxGeometry>
        </mxCell>
        <mxCell id="YpGhRkBLHknayNMrXKQS-411" value="" style="swimlane;swimlaneHead=0;swimlaneBody=0;fontStyle=0;connectable=0;strokeColor=inherit;fillColor=none;startSize=0;collapsible=0;recursiveResize=0;expand=0;" parent="YpGhRkBLHknayNMrXKQS-402" vertex="1">
          <mxGeometry x="573" width="67" height="19" as="geometry">
            <mxRectangle width="67" height="19" as="alternateBounds" />
          </mxGeometry>
        </mxCell>
        <mxCell id="YpGhRkBLHknayNMrXKQS-412" value="" style="shape=tableRow;horizontal=0;swimlaneHead=0;swimlaneBody=0;top=0;left=0;strokeColor=inherit;bottom=0;right=0;dropTarget=0;fontStyle=0;fillColor=none;points=[[0,0.5],[1,0.5]];portConstraint=eastwest;startSize=40;collapsible=0;recursiveResize=0;expand=0;" parent="YpGhRkBLHknayNMrXKQS-291" vertex="1">
          <mxGeometry y="232" width="640" height="19" as="geometry" />
        </mxCell>
        <mxCell id="YpGhRkBLHknayNMrXKQS-413" value="" style="swimlane;swimlaneHead=0;swimlaneBody=0;fontStyle=0;connectable=0;strokeColor=inherit;fillColor=none;startSize=0;collapsible=0;recursiveResize=0;expand=0;" parent="YpGhRkBLHknayNMrXKQS-412" vertex="1">
          <mxGeometry x="40" width="67" height="19" as="geometry">
            <mxRectangle width="67" height="19" as="alternateBounds" />
          </mxGeometry>
        </mxCell>
        <mxCell id="YpGhRkBLHknayNMrXKQS-414" value="" style="swimlane;swimlaneHead=0;swimlaneBody=0;fontStyle=0;connectable=0;strokeColor=inherit;fillColor=none;startSize=0;collapsible=0;recursiveResize=0;expand=0;" parent="YpGhRkBLHknayNMrXKQS-412" vertex="1">
          <mxGeometry x="107" width="66" height="19" as="geometry">
            <mxRectangle width="66" height="19" as="alternateBounds" />
          </mxGeometry>
        </mxCell>
        <mxCell id="YpGhRkBLHknayNMrXKQS-415" value="" style="swimlane;swimlaneHead=0;swimlaneBody=0;fontStyle=0;connectable=0;strokeColor=inherit;fillColor=none;startSize=0;collapsible=0;recursiveResize=0;expand=0;" parent="YpGhRkBLHknayNMrXKQS-412" vertex="1">
          <mxGeometry x="173" width="67" height="19" as="geometry">
            <mxRectangle width="67" height="19" as="alternateBounds" />
          </mxGeometry>
        </mxCell>
        <mxCell id="YpGhRkBLHknayNMrXKQS-416" value="" style="swimlane;swimlaneHead=0;swimlaneBody=0;fontStyle=0;connectable=0;strokeColor=inherit;fillColor=none;startSize=0;collapsible=0;recursiveResize=0;expand=0;" parent="YpGhRkBLHknayNMrXKQS-412" vertex="1">
          <mxGeometry x="240" width="67" height="19" as="geometry">
            <mxRectangle width="67" height="19" as="alternateBounds" />
          </mxGeometry>
        </mxCell>
        <mxCell id="YpGhRkBLHknayNMrXKQS-417" value="" style="swimlane;swimlaneHead=0;swimlaneBody=0;fontStyle=0;connectable=0;strokeColor=inherit;fillColor=none;startSize=0;collapsible=0;recursiveResize=0;expand=0;" parent="YpGhRkBLHknayNMrXKQS-412" vertex="1">
          <mxGeometry x="307" width="66" height="19" as="geometry">
            <mxRectangle width="66" height="19" as="alternateBounds" />
          </mxGeometry>
        </mxCell>
        <mxCell id="YpGhRkBLHknayNMrXKQS-418" value="" style="swimlane;swimlaneHead=0;swimlaneBody=0;fontStyle=0;connectable=0;strokeColor=inherit;fillColor=none;startSize=0;collapsible=0;recursiveResize=0;expand=0;" parent="YpGhRkBLHknayNMrXKQS-412" vertex="1">
          <mxGeometry x="373" width="67" height="19" as="geometry">
            <mxRectangle width="67" height="19" as="alternateBounds" />
          </mxGeometry>
        </mxCell>
        <mxCell id="YpGhRkBLHknayNMrXKQS-419" value="" style="swimlane;swimlaneHead=0;swimlaneBody=0;fontStyle=0;connectable=0;strokeColor=inherit;fillColor=none;startSize=0;collapsible=0;recursiveResize=0;expand=0;" parent="YpGhRkBLHknayNMrXKQS-412" vertex="1">
          <mxGeometry x="440" width="67" height="19" as="geometry">
            <mxRectangle width="67" height="19" as="alternateBounds" />
          </mxGeometry>
        </mxCell>
        <mxCell id="YpGhRkBLHknayNMrXKQS-420" value="" style="swimlane;swimlaneHead=0;swimlaneBody=0;fontStyle=0;connectable=0;strokeColor=inherit;fillColor=none;startSize=0;collapsible=0;recursiveResize=0;expand=0;" parent="YpGhRkBLHknayNMrXKQS-412" vertex="1">
          <mxGeometry x="507" width="66" height="19" as="geometry">
            <mxRectangle width="66" height="19" as="alternateBounds" />
          </mxGeometry>
        </mxCell>
        <mxCell id="YpGhRkBLHknayNMrXKQS-421" value="" style="swimlane;swimlaneHead=0;swimlaneBody=0;fontStyle=0;connectable=0;strokeColor=inherit;fillColor=none;startSize=0;collapsible=0;recursiveResize=0;expand=0;" parent="YpGhRkBLHknayNMrXKQS-412" vertex="1">
          <mxGeometry x="573" width="67" height="19" as="geometry">
            <mxRectangle width="67" height="19" as="alternateBounds" />
          </mxGeometry>
        </mxCell>
        <mxCell id="YpGhRkBLHknayNMrXKQS-423" value="click in here to go to an editable form, already filled with this customers details and with a delete option at the bottom" style="shape=callout;whiteSpace=wrap;html=1;perimeter=calloutPerimeter;" parent="1" vertex="1">
          <mxGeometry x="750" y="70" width="120" height="150" as="geometry" />
        </mxCell>
        <mxCell id="qz_svecnsdqs3by7-r_0-18" value="&lt;font style=&quot;font-size: 14px;&quot;&gt;Customers&lt;/font&gt;" style="whiteSpace=wrap;html=1;rounded=0;shadow=0;labelBackgroundColor=none;strokeWidth=1;fontFamily=Verdana;fontSize=28;align=center;comic=1;" parent="1" vertex="1">
          <mxGeometry x="290" y="147.38" width="100" height="35.25" as="geometry" />
        </mxCell>
        <mxCell id="YpGhRkBLHknayNMrXKQS-424" value="Sort (or better still filter) by any of the headings" style="shape=callout;whiteSpace=wrap;html=1;perimeter=calloutPerimeter;" parent="1" vertex="1">
          <mxGeometry x="150" y="125.01" width="120" height="80" as="geometry" />
        </mxCell>
        <mxCell id="kg68NQ-i2UF1LJ9AUR5V-1" value="click on email to open email system?" style="shape=callout;whiteSpace=wrap;html=1;perimeter=calloutPerimeter;" vertex="1" parent="1">
          <mxGeometry x="410" y="140" width="120" height="80" as="geometry" />
        </mxCell>
      </root>
    </mxGraphModel>
  </diagram>
</mxfile>
